<svg width="36" height="36" viewBox="0 0 36 36" fill="none" xmlns="http://www.w3.org/2000/svg">
<path fill-rule="evenodd" clip-rule="evenodd" d="M13 13H11V15H13V13ZM13 12H11H10V13V15V16V25V26H11H26H27V25V16V15V13V12H26H14H13ZM26 15V13H14V15H26ZM26 16H14H13H11V25H26V16ZM13.3536 18.6464L15.3536 20.6464L15.7071 21L15.3536 21.3536L13.3536 23.3536L12.6464 22.6464L14.2929 21L12.6464 19.3536L13.3536 18.6464ZM16 22H20V23H16V22Z" fill="#F8F8F8" fill-opacity="0.56"/>
<circle cx="18" cy="18" r="17.5" stroke="#F8F8F8" stroke-opacity="0.56"/>
</svg>
