<svg width="36" height="36" viewBox="0 0 36 36" fill="none" xmlns="http://www.w3.org/2000/svg">
<path d="M11.0583 18C11.0583 17.5931 11.3882 17.2632 11.7951 17.2632H24.2632C24.6701 17.2632 25 17.5931 25 18C25 18.4069 24.6701 18.7368 24.2632 18.7368H11.7951C11.3882 18.7368 11.0583 18.4069 11.0583 18Z" fill="#F8F8F8"/>
<path d="M11.7951 21.2632C11.3882 21.2632 11.0583 21.5931 11.0583 22C11.0583 22.4069 11.3882 22.7368 11.7951 22.7368H24.2632C24.6701 22.7368 25 22.4069 25 22C25 21.5931 24.6701 21.2632 24.2632 21.2632H11.7951Z" fill="#F8F8F8"/>
<path d="M11.0583 26C11.0583 25.5931 11.3882 25.2632 11.7951 25.2632H18.3158C18.7227 25.2632 19.0526 25.5931 19.0526 26C19.0526 26.4069 18.7227 26.7368 18.3158 26.7368H11.7951C11.3882 26.7368 11.0583 26.4069 11.0583 26Z" fill="#F8F8F8"/>
<path fill-rule="evenodd" clip-rule="evenodd" d="M9.32185 4C8.10101 4 7.11133 4.98969 7.11133 6.21053L7.11133 29.7076C7.11131 30.8466 8.18287 32 9.40371 32H26.5967C27.8175 32 28.8891 30.9284 28.8891 29.7076V13.162C28.8891 12.6159 28.687 12.0073 28.3217 11.6014L21.3612 4.73176C20.942 4.26597 20.2629 4 19.6363 4H9.32185ZM8.66688 6.2924C8.66688 5.88545 8.99678 5.55556 9.40373 5.55556L19.5558 5.55556V11.0409C19.5558 12.2618 20.6273 13.3333 21.8482 13.3333H27.3336L27.3335 29.7076C27.3335 30.1145 27.0036 30.4444 26.5967 30.4444H9.40371C8.99676 30.4444 8.66687 30.1145 8.66687 29.7076L8.66688 6.2924ZM26.4978 11.7778L21.1113 6.65702V11.0409C21.1113 11.4479 21.4412 11.7778 21.8482 11.7778H26.4978Z" fill="#F8F8F8"/>
</svg>
