<svg width="36" height="37" viewBox="0 0 36 37" fill="none" xmlns="http://www.w3.org/2000/svg">
<circle cx="17.9985" cy="19.0967" r="4.43311" stroke="currentColor" stroke-width="1.5"/>
<path d="M8.67531 10.1368L8.30031 10.7863L8.30031 10.7863L8.67531 10.1368ZM7.30928 10.5028L6.65976 10.1278L6.65976 10.1278L7.30928 10.5028ZM5.22789 14.1078L5.87741 14.4828L5.87741 14.4828L5.22789 14.1078ZM5.59392 15.4739L5.96892 14.8244L5.96892 14.8244L5.59392 15.4739ZM6.21065 22.3261L6.58565 22.9756L6.58565 22.9756L6.21065 22.3261ZM5.84463 23.6921L5.19511 24.0671L5.19511 24.0671L5.84463 23.6921ZM7.92602 27.2972L8.57554 26.9222L7.92602 27.2972ZM9.29204 27.6632L9.66704 28.3127L9.66704 28.3127L9.29204 27.6632ZM26.7064 27.6632L26.3314 28.3127L26.3314 28.3127L26.7064 27.6632ZM28.0724 27.2972L27.4229 26.9222L27.4229 26.9222L28.0724 27.2972ZM30.1538 23.6921L30.8033 24.0671L30.8033 24.0671L30.1538 23.6921ZM29.7878 22.3261L29.4128 22.9756L29.4128 22.9756L29.7878 22.3261ZM30.4045 15.4739L30.0295 14.8244L30.0295 14.8244L30.4045 15.4739ZM30.7706 14.1078L31.4201 13.7328L31.4201 13.7328L30.7706 14.1078ZM28.6892 10.5028L28.0397 10.8778L28.0397 10.8778L28.6892 10.5028ZM27.3232 10.1368L26.9482 9.48723L26.9482 9.48723L27.3232 10.1368ZM26.1329 10.8239L26.5079 11.4734L26.1329 10.8239ZM28.1648 18.3342L28.9129 18.2804L28.1648 18.3342ZM29.2224 16.1564L29.5974 16.8059L29.2224 16.1564ZM23.7155 27.501L23.2952 26.8799L23.7155 27.501ZM26.1276 27.329L25.7526 27.9785L26.1276 27.329ZM29.2219 21.9993L28.8469 22.6489L29.2219 21.9993ZM28.1644 19.8202L28.9125 19.8744L28.1644 19.8202ZM13.5655 28.2151L13.8948 27.5413L13.5655 28.2151ZM9.8976 27.3136L10.2726 27.9631L9.8976 27.3136ZM12.314 27.4887L11.8923 28.1089L12.314 27.4887ZM22.4435 28.2339L22.1171 27.5587L22.4435 28.2339ZM6.82366 21.9721L7.19866 22.6217L6.82366 21.9721ZM15.6683 6.17808C15.6683 6.04 15.7802 5.92808 15.9183 5.92808V4.42808C14.9518 4.42808 14.1683 5.21158 14.1683 6.17808H15.6683ZM15.6683 7.93081V6.17808H14.1683V7.93081H15.6683ZM12.7317 11.2835C13.1015 11.0318 13.4901 10.8058 13.8948 10.608L13.2362 9.26032C12.7667 9.48975 12.3162 9.75181 11.8877 10.0435L12.7317 11.2835ZM8.30031 10.7863L9.51731 11.4889L10.2673 10.1899L9.05031 9.48723L8.30031 10.7863ZM7.9588 10.8778C8.02783 10.7582 8.18073 10.7172 8.30031 10.7863L9.05031 9.48723C8.21329 9.00398 7.14301 9.29076 6.65976 10.1278L7.9588 10.8778ZM5.87741 14.4828L7.9588 10.8778L6.65976 10.1278L4.57837 13.7328L5.87741 14.4828ZM5.96892 14.8244C5.84934 14.7553 5.80837 14.6024 5.87741 14.4828L4.57837 13.7328C4.09512 14.5699 4.3819 15.6401 5.21892 16.1234L5.96892 14.8244ZM7.19817 15.5341L5.96892 14.8244L5.21892 16.1234L6.44817 16.8331L7.19817 15.5341ZM8.60632 19.0747C8.60632 18.8505 8.61414 18.6283 8.6295 18.4083L7.13314 18.3039C7.11535 18.5586 7.10632 18.8156 7.10632 19.0747H8.60632ZM8.62983 19.7458C8.61425 19.5242 8.60632 19.3004 8.60632 19.0747H7.10632C7.10632 19.3356 7.11548 19.5944 7.13353 19.851L8.62983 19.7458ZM6.58565 22.9756L7.19866 22.6217L6.44866 21.3226L5.83565 21.6765L6.58565 22.9756ZM6.49415 23.3171C6.42511 23.1975 6.46608 23.0446 6.58565 22.9756L5.83565 21.6765C4.99864 22.1598 4.71186 23.2301 5.19511 24.0671L6.49415 23.3171ZM8.57554 26.9222L6.49415 23.3171L5.19511 24.0671L7.2765 27.6722L8.57554 26.9222ZM8.91704 27.0137C8.79747 27.0827 8.64457 27.0417 8.57554 26.9222L7.2765 27.6722C7.75975 28.5092 8.83003 28.7959 9.66704 28.3127L8.91704 27.0137ZM9.5226 26.664L8.91704 27.0137L9.66704 28.3127L10.2726 27.9631L9.5226 26.664ZM13.8948 27.5413C13.4915 27.3442 13.1043 27.1191 12.7357 26.8685L11.8923 28.1089C12.3194 28.3994 12.7684 28.6604 13.2362 28.889L13.8948 27.5413ZM15.6683 30.5567V30.2185H14.1683V30.5567H15.6683ZM15.9183 30.8067C15.7802 30.8067 15.6683 30.6948 15.6683 30.5567H14.1683C14.1683 31.5232 14.9518 32.3067 15.9183 32.3067V30.8067ZM20.0811 30.8067H15.9183V32.3067H20.0811V30.8067ZM20.3311 30.5567C20.3311 30.6948 20.2191 30.8067 20.0811 30.8067V32.3067C21.0476 32.3067 21.8311 31.5232 21.8311 30.5567H20.3311ZM20.3311 30.2416V30.5567H21.8311V30.2416H20.3311ZM23.2952 26.8799C22.9207 27.1333 22.5271 27.3605 22.1171 27.5587L22.77 28.9092C23.2456 28.6792 23.7019 28.4159 24.1359 28.1221L23.2952 26.8799ZM27.0814 27.0137L26.5026 26.6795L25.7526 27.9785L26.3314 28.3127L27.0814 27.0137ZM27.4229 26.9222C27.3539 27.0417 27.201 27.0827 27.0814 27.0137L26.3314 28.3127C27.1684 28.7959 28.2387 28.5092 28.722 27.6722L27.4229 26.9222ZM29.5043 23.3171L27.4229 26.9222L28.722 27.6722L30.8033 24.0671L29.5043 23.3171ZM29.4128 22.9756C29.5324 23.0446 29.5733 23.1975 29.5043 23.3171L30.8033 24.0671C31.2866 23.2301 30.9998 22.1598 30.1628 21.6765L29.4128 22.9756ZM28.8469 22.6489L29.4128 22.9756L30.1628 21.6765L29.5969 21.3498L28.8469 22.6489ZM27.4414 19.0747C27.4414 19.3073 27.4329 19.5378 27.4164 19.766L28.9125 19.8744C28.9316 19.6102 28.9414 19.3435 28.9414 19.0747H27.4414ZM27.4167 18.3881C27.4331 18.6147 27.4414 18.8436 27.4414 19.0747H28.9414C28.9414 18.8077 28.9318 18.5428 28.9129 18.2804L27.4167 18.3881ZM30.0295 14.8244L28.8474 15.5069L29.5974 16.8059L30.7795 16.1234L30.0295 14.8244ZM30.121 14.4828C30.1901 14.6024 30.1491 14.7553 30.0295 14.8244L30.7795 16.1234C31.6166 15.6401 31.9033 14.5699 31.4201 13.7328L30.121 14.4828ZM28.0397 10.8778L30.121 14.4828L31.4201 13.7328L29.3387 10.1278L28.0397 10.8778ZM27.6982 10.7863C27.8177 10.7172 27.9706 10.7582 28.0397 10.8778L29.3387 10.1278C28.8554 9.29077 27.7852 9.00398 26.9482 9.48723L27.6982 10.7863ZM26.5079 11.4734L27.6982 10.7863L26.9482 9.48723L25.7579 10.1744L26.5079 11.4734ZM22.1171 10.5906C22.5286 10.7895 22.9235 11.0176 23.2992 11.2721L24.1405 10.0303C23.7052 9.73531 23.2473 9.4709 22.77 9.24014L22.1171 10.5906ZM20.3311 6.17808V7.90774H21.8311V6.17808H20.3311ZM20.0811 5.92808C20.2191 5.92808 20.3311 6.04 20.3311 6.17808H21.8311C21.8311 5.21158 21.0476 4.42808 20.0811 4.42808V5.92808ZM15.9183 5.92808H20.0811V4.42808H15.9183V5.92808ZM22.77 9.24014C22.1856 8.95763 21.8311 8.43466 21.8311 7.90774H20.3311C20.3311 9.12717 21.1292 10.1131 22.1171 10.5906L22.77 9.24014ZM25.7579 10.1744C25.3029 10.4371 24.6753 10.3926 24.1405 10.0303L23.2992 11.2721C24.2058 11.8864 25.4551 12.0813 26.5079 11.4734L25.7579 10.1744ZM28.9129 18.2804C28.8665 17.6354 29.142 17.0688 29.5974 16.8059L28.8474 15.5069C27.794 16.115 27.3381 17.2953 27.4167 18.3881L28.9129 18.2804ZM24.1359 28.1221C24.6706 27.7603 25.2978 27.7159 25.7526 27.9785L26.5026 26.6795C25.4504 26.072 24.2017 26.2664 23.2952 26.8799L24.1359 28.1221ZM29.5969 21.3498C29.1412 21.0867 28.8657 20.5198 28.9125 19.8744L27.4164 19.766C27.3372 20.8592 27.793 22.0404 28.8469 22.6489L29.5969 21.3498ZM13.2362 28.889C13.8167 29.1727 14.1683 29.6938 14.1683 30.2185H15.6683C15.6683 29.0043 14.8766 28.0211 13.8948 27.5413L13.2362 28.889ZM10.2726 27.9631C10.7284 27.6999 11.3571 27.7451 11.8923 28.1089L12.7357 26.8685C11.8286 26.2517 10.5771 26.0552 9.5226 26.664L10.2726 27.9631ZM21.8311 30.2416C21.8311 29.7146 22.1856 29.1917 22.77 28.9092L22.1171 27.5587C21.1292 28.0362 20.3311 29.0221 20.3311 30.2416H21.8311ZM7.13353 19.851C7.17881 20.4949 6.90336 21.0601 6.44866 21.3226L7.19866 22.6217C8.25029 22.0145 8.70657 20.8369 8.62983 19.7458L7.13353 19.851ZM6.44817 16.8331C6.90264 17.0955 7.17808 17.6602 7.13314 18.3039L8.6295 18.4083C8.70564 17.3177 8.24926 16.1409 7.19817 15.5341L6.44817 16.8331ZM11.8877 10.0435C11.3524 10.4078 10.7233 10.4532 10.2673 10.1899L9.51731 11.4889C10.5724 12.0981 11.8245 11.901 12.7317 11.2835L11.8877 10.0435ZM14.1683 7.93081C14.1683 8.45553 13.8167 8.97663 13.2362 9.26032L13.8948 10.608C14.8766 10.1282 15.6683 9.14501 15.6683 7.93081H14.1683Z" fill="#F8F8F8"/>
</svg>
